Coordinates
version=1
nRows=9
nColumns=24
inDegrees=yes

Units are S.I. units (second, meters, Newtons, ...)
Angles are in degrees.

endheader
time	pelvis_tilt	pelvis_list	pelvis_rotation	pelvis_tx	pelvis_ty	pelvis_tz	hip_flexion_r	hip_adduction_r	hip_rotation_r	knee_angle_r	ankle_angle_r	subtalar_angle_r	mtp_angle_r	hip_flexion_l	hip_adduction_l	hip_rotation_l	knee_angle_l	ankle_angle_l	subtalar_angle_l	mtp_angle_l	lumbar_extension	lumbar_bending	lumbar_rotation
      5.77000000	      9.37249351	      2.71806775	      5.12957526	      0.87256176	      0.88084213	     -0.25659820	    -36.27141709	      1.50163240	     -6.09689576	     -8.30799509	     16.31896672	      4.80805218	      0.00000000	     15.40600682	      6.85526252	      6.10990690	     -9.32561215	      5.60879077	    -11.97269069	      0.00000000	    -27.77965653	     -4.43646216	     -6.18136122
      5.78000000	      9.45471927	      3.04947051	      5.27098681	      0.88954421	      0.87962606	     -0.25895389	    -35.78078530	      0.90901115	     -7.29530062	    -11.07567429	     14.73119123	      5.81511884	      0.00000000	     16.61312239	      7.34362033	      4.06312776	    -13.19087614	      6.10852353	     -9.84700700	      0.00000000	    -27.76608385	     -5.00368592	     -6.09193425
      5.79000000	      9.55963095	      3.33293412	      5.38531454	      0.90644036	      0.87860165	     -0.26122244	    -35.06724578	      0.29792768	     -8.28049276	    -14.15275667	     12.61467424	      6.43652523	      0.00000000	     17.72125623	      7.69381100	      2.40817904	    -16.96954259	      6.76134609	     -8.20060237	      0.00000000	    -27.80461271	     -5.51316132	     -6.06941824
      5.80000000	      9.82522579	      3.64558344	      5.43209789	      0.92318779	      0.87794209	     -0.26337433	    -34.27908019	     -0.40610363	     -9.09450173	    -17.52134060	      9.98762269	      6.61750933	      0.00000000	     18.50766384	      8.00413007	      1.10241212	    -20.55220474	      7.80449995	     -6.85053630	      0.00000000	    -28.06590610	     -6.04308081	     -6.01997004
      5.81000000	     10.14620361	      3.91771787	      5.42394229	      0.93973216	      0.87749518	     -0.26549455	    -33.26596478	     -1.14532572	     -9.69009710	    -21.21109431	      6.89151831	      6.38424848	      0.00000000	     19.04662366	      8.26725018	      0.18887980	    -23.87063413	      9.18677189	     -5.86666495	      0.00000000	    -28.40065542	     -6.50081737	     -5.96069818
      5.82000000	     10.51301396	      4.15681726	      5.34142263	      0.95601912	      0.87724074	     -0.26760675	    -32.01247731	     -1.94208781	    -10.09571764	    -25.21244572	      3.46963767	      5.83385347	      0.00000000	     19.29345839	      8.50605177	     -0.45273042	    -26.82855382	     10.84377802	     -5.13078391	      0.00000000	    -28.78951320	     -6.89123283	     -5.86448822
      5.83000000	     10.85864856	      4.38357602	      5.15932051	      0.97205008	      0.87711632	     -0.26971854	    -30.46812259	     -2.83109165	    -10.30290634	    -29.48515013	     -0.05854919	      5.12213703	      0.00000000	     19.26647298	      8.75263278	     -0.92186811	    -29.32449806	     12.66789431	     -4.61473696	      0.00000000	    -29.13372416	     -7.25043444	     -5.76207542
      5.84000000	     11.14494043	      4.60370397	      4.86265232	      0.98778312	      0.87710515	     -0.27180083	    -28.62346371	     -3.81031180	    -10.29781396	    -33.95455228	     -3.42155417	      4.35112155	      0.00000000	     18.99917570	      8.99496117	     -1.35545247	    -31.32008912	     14.53836424	     -4.20500687	      0.00000000	    -29.38654473	     -7.59115500	     -5.60590336
      5.85000000	     11.32252921	      4.84874399	      4.43536841	      1.00324585	      0.87721641	     -0.27378170	    -26.47589480	     -4.87751804	    -10.03032755	    -38.51439808	     -6.32750935	      3.65900131	      0.00000000	     18.53918424	      9.25466902	     -1.82777904	    -32.78640746	     16.38022880	     -3.86327177	      0.00000000	    -29.47689191	     -7.97609992	     -5.45534878
